<?xml version="1.0" standalone="no"?>
<!DOCTYPE svg PUBLIC "-//W3C//DTD SVG 20010904//EN"
 "http://www.w3.org/TR/2001/REC-SVG-20010904/DTD/svg10.dtd">
<svg version="1.0" xmlns="http://www.w3.org/2000/svg"
 width="167.000000pt" height="99.000000pt" viewBox="0 0 167.000000 99.000000"
 preserveAspectRatio="xMidYMid meet">
<metadata>
Created by potrace 1.10, written by Peter Selinger 2001-2011
</metadata>
<g transform="translate(0.000000,99.000000) scale(0.100000,-0.100000)"
fill="#000000" stroke="none">
<path d="M698 734 c-15 -8 -41 -34 -58 -59 -31 -46 -100 -182 -119 -236 -6
-18 -13 -30 -15 -28 -5 6 12 250 20 277 3 12 2 22 -2 22 -10 0 -58 -81 -120
-199 -22 -40 -55 -92 -74 -114 -31 -34 -43 -40 -85 -44 -62 -6 -105 21 -105
67 0 54 84 90 141 59 11 -6 25 -8 32 -6 17 7 -57 37 -89 37 -68 0 -124 -59
-110 -115 8 -32 61 -65 104 -65 85 0 135 48 218 210 31 61 58 109 60 107 3 -2
0 -24 -5 -48 -13 -55 -14 -219 -1 -239 7 -11 11 -8 20 15 50 133 129 283 172
325 44 45 97 40 117 -10 l10 -25 0 27 c2 50 -57 72 -111 42z"/>
<path d="M1017 671 c-45 -50 -82 -115 -98 -171 -16 -57 -54 -110 -80 -110 -25
0 -24 2 11 72 17 33 29 63 26 65 -2 3 -18 -15 -35 -39 -53 -76 -72 -98 -87
-98 -22 0 -17 29 17 88 23 41 27 53 14 48 -9 -3 -25 -1 -36 5 -56 30 -171 -72
-155 -137 9 -35 50 -42 88 -14 28 21 30 21 43 3 13 -17 15 -17 45 -1 27 15 32
16 36 3 10 -24 44 -17 73 14 l27 29 11 -29 c12 -31 38 -38 73 -19 13 7 21 6
30 -5 27 -32 109 -4 144 50 27 42 17 42 -19 0 l-35 -40 6 36 c3 20 1 52 -4 71
-6 22 -6 41 0 51 5 10 5 17 0 17 -5 0 -33 -36 -61 -80 -57 -87 -83 -109 -107
-89 -25 20 -15 49 32 103 64 69 112 144 120 184 6 29 4 32 -19 32 -16 0 -37
-13 -60 -39z m40 -44 c-33 -56 -108 -149 -115 -143 -10 10 66 150 100 185 26
27 34 30 36 17 2 -9 -8 -36 -21 -59z m-302 -117 c16 -26 -72 -130 -110 -130
-30 0 -33 25 -10 69 27 53 102 91 120 61z m335 -48 c0 -61 -18 -87 -53 -78
l-26 6 37 60 c20 33 38 60 40 60 1 0 2 -22 2 -48z"/>
<path d="M893 575 c-3 -9 -3 -19 1 -22 8 -9 37 18 30 28 -8 14 -24 11 -31 -6z"/>
</g>
</svg>
